# xmcd
# Copyright (C) 1995-1998 Ti Kan
#
# Track frame offsets:
#       150
#       11082
#       21724
#       35213
#       48852
#       62541
#       75424
#       91423
#       104984
#       117218
#       127556
#       138251
#       149136
#       162203
#
# Disc length: 2362 seconds
#
# Revision: 0
# Processed by: cddbd v1.5.2PL0 Copyright (c) Steve Scherf et al.
# Submitted via: CD-Transfer v1.0
#
DISCID=c109380e
DTITLE=Holla-Reitulje - 
DYEAR=1900
DGENRE=
TTITLE0=Wir San Vom Steirerland
TTITLE1=Du Bist Mein Schatzerl
TTITLE2=Wir Sollten Liebe Machen
TTITLE3=Martha, He Dos Wird Ein Theater
TTITLE4=Baritonsehnsucht
TTITLE5=Koa Hexerei
TTITLE6=I Brauch Mehr
TTITLE7=Die Schönste Zeit Kinderzeit
TTITLE8=Ausflug Mit Der Steirischen
TTITLE9=Hey, Tanz Mit Mir
TTITLE10=I Bin A Jagabua
TTITLE11=Heute Gemma Drachensteigen
TTITLE12=An Engerl Glauben
TTITLE13=Vor Meinem Hütterl
EXTD=
EXTT0=
EXTT1=
EXTT2=
EXTT3=
EXTT4=
EXTT5=
EXTT6=
EXTT7=
EXTT8=
EXTT9=
EXTT10=
EXTT11=
EXTT12=
EXTT13=
PLAYORDER=
